<svg width="661" height="764" viewBox="0 0 661 764" fill="none" xmlns="http://www.w3.org/2000/svg">
<path d="M660.895 572.291L330.497 763.128L292.557 741.212L660.895 528.562V572.291ZM660.896 478.524L469.543 589.036L426.227 564.019L205.928 691.278L167.987 669.361L660.896 384.761V478.524ZM660.897 334.746L344.973 517.105L301.554 492.088L81.2539 619.243L43.418 597.431L660.897 240.878V334.746ZM660.899 190.854L220.3 445.166V395.131L0 522.39V478.558L579.644 143.921L660.899 190.854ZM536.328 118.893L220.3 301.356V251.32L0 378.477V334.644L455.073 71.959L536.328 118.893ZM411.757 46.9336L220.3 157.445V107.41L0 234.669V190.733L330.502 0L411.757 46.9336Z" fill="#1160F8"/>
</svg>
