<svg width="120" height="30" viewBox="0 0 120 30" fill="none" xmlns="http://www.w3.org/2000/svg">
<g clip-path="url(#clip0_58_590)">
<path d="M41.1434 14.8519C41.2815 14.8519 41.3907 14.8984 41.4712 14.9913C41.5633 15.0726 41.6093 15.183 41.6093 15.3223V19.9392C41.6093 20.2413 41.477 20.4503 41.2125 20.5664C40.7407 20.7872 40.1656 20.9615 39.4869 21.0891C38.8197 21.217 38.1409 21.2808 37.4508 21.2808C36.2659 21.2808 35.242 21.037 34.3793 20.5491C33.528 20.0496 32.8723 19.3295 32.4123 18.3887C31.9636 17.4362 31.7393 16.3038 31.7393 14.9913C31.7393 13.7021 31.9636 12.587 32.4123 11.6462C32.8608 10.7054 33.5051 9.98527 34.3448 9.48582C35.1845 8.97477 36.1797 8.71924 37.33 8.71924C38.1352 8.71924 38.8887 8.8528 39.5904 9.11995C40.2922 9.37548 40.8674 9.74716 41.3159 10.235C41.4655 10.386 41.5402 10.5544 41.5402 10.7402C41.5402 10.868 41.5058 10.9783 41.4368 11.0713C41.3678 11.1642 41.2815 11.2106 41.1779 11.2106C41.086 11.2106 40.9593 11.1526 40.7984 11.0364C40.1886 10.5254 39.625 10.1711 39.1073 9.97365C38.5896 9.7762 37.9971 9.67748 37.33 9.67748C35.9035 9.67748 34.7993 10.1421 34.0169 11.0713C33.2462 11.9889 32.8608 13.2955 32.8608 14.9913C32.8608 16.722 33.252 18.046 34.0342 18.9636C34.8164 19.8812 35.9554 20.34 37.4508 20.34C38.026 20.34 38.5896 20.2935 39.1417 20.2007C39.7055 20.096 40.2059 19.9509 40.6431 19.765V15.7579H37.8476C37.6866 15.7579 37.56 15.7172 37.4681 15.6359C37.3875 15.5547 37.3472 15.4443 37.3472 15.3049C37.3472 15.1655 37.3875 15.0551 37.4681 14.9739C37.56 14.8926 37.6866 14.8519 37.8476 14.8519H41.1434Z" fill="#76EEC6"/>
<path d="M45.2967 21.2285C45.1356 21.2285 45.0033 21.1821 44.8997 21.0891C44.8078 20.9962 44.7617 20.8627 44.7617 20.6885V9.31157C44.7617 9.13735 44.8078 9.00378 44.8997 8.91086C45.0033 8.81795 45.1356 8.77148 45.2967 8.77148C45.4463 8.77148 45.567 8.81795 45.6591 8.91086C45.7627 9.00378 45.8144 9.13735 45.8144 9.31157V20.6885C45.8144 20.8627 45.7627 20.9962 45.6591 21.0891C45.567 21.1821 45.4463 21.2285 45.2967 21.2285Z" fill="#76EEC6"/>
<path d="M52.2626 21.2633C51.4919 21.2633 50.8131 21.0833 50.2264 20.7232C49.6513 20.3632 49.2026 19.8521 48.8806 19.1901C48.5584 18.528 48.3975 17.7557 48.3975 16.8728C48.3975 15.9901 48.5584 15.2178 48.8806 14.5557C49.2026 13.8936 49.6513 13.3826 50.2264 13.0225C50.8131 12.6625 51.4919 12.4824 52.2626 12.4824C53.0219 12.4824 53.6948 12.6625 54.2815 13.0225C54.8682 13.3826 55.3168 13.8936 55.6273 14.5557C55.9495 15.2178 56.1106 15.9901 56.1106 16.8728C56.1106 17.7557 55.9495 18.528 55.6273 19.1901C55.3168 19.8521 54.8682 20.3632 54.2815 20.7232C53.6948 21.0833 53.0219 21.2633 52.2626 21.2633ZM52.2453 20.3225C53.1311 20.3225 53.8156 20.0264 54.2987 19.4339C54.7818 18.8416 55.0235 17.9878 55.0235 16.8728C55.0235 15.781 54.7761 14.9332 54.2815 14.3292C53.7983 13.7136 53.1253 13.4058 52.2626 13.4058C51.3883 13.4058 50.7097 13.7136 50.2264 14.3292C49.7433 14.9332 49.5017 15.781 49.5017 16.8728C49.5017 17.9878 49.7376 18.8416 50.2091 19.4339C50.6809 20.0264 51.3596 20.3225 52.2453 20.3225Z" fill="#76EEC6"/>
<path d="M62.6148 12.4825C63.3511 12.4825 64.001 12.6625 64.5647 13.0226C65.1284 13.3826 65.5656 13.8937 65.8761 14.5557C66.1867 15.2062 66.342 15.9669 66.342 16.8381C66.342 17.7208 66.1867 18.4991 65.8761 19.1727C65.5656 19.8347 65.1284 20.3515 64.5647 20.7232C64.001 21.0834 63.3511 21.2634 62.6148 21.2634C61.9362 21.2634 61.3495 21.1182 60.8549 20.8278C60.3602 20.5258 59.9863 20.0902 59.7332 19.5211V20.671C59.7332 20.8336 59.6872 20.9672 59.5951 21.0717C59.5032 21.1646 59.3766 21.211 59.2156 21.211C59.0546 21.211 58.9223 21.1646 58.8187 21.0717C58.7266 20.9672 58.6807 20.8336 58.6807 20.671V9.31157C58.6807 9.14897 58.7266 9.02121 58.8187 8.92828C58.9223 8.82376 59.0546 8.77148 59.2156 8.77148C59.3766 8.77148 59.5032 8.82376 59.5951 8.92828C59.6872 9.02121 59.7332 9.14897 59.7332 9.31157V14.2247C59.9863 13.6556 60.3602 13.2258 60.8549 12.9354C61.3495 12.6335 61.9362 12.4825 62.6148 12.4825ZM62.4768 20.3226C63.3511 20.3226 64.0298 20.0147 64.5129 19.3992C65.0076 18.7835 65.2549 17.9298 65.2549 16.8381C65.2549 15.7463 65.0076 14.9042 64.5129 14.3118C64.0298 13.7078 63.3453 13.4058 62.4596 13.4058C61.5853 13.4058 60.9123 13.7078 60.4408 14.3118C59.969 14.9158 59.7332 15.7695 59.7332 16.8729C59.7332 17.9764 59.969 18.8301 60.4408 19.4339C60.9239 20.0264 61.6026 20.3226 62.4768 20.3226Z" fill="#76EEC6"/>
<path d="M72.2304 12.4824C73.2427 12.4824 73.9961 12.7496 74.4908 13.2839C74.9969 13.8181 75.2501 14.6254 75.2501 15.7056V20.671C75.2501 20.8336 75.204 20.9672 75.112 21.0716C75.02 21.1646 74.8935 21.211 74.7324 21.211C74.5713 21.211 74.4448 21.1646 74.3527 21.0716C74.2608 20.9672 74.2147 20.8336 74.2147 20.671V19.6256C73.9732 20.1483 73.6222 20.5548 73.1622 20.8452C72.702 21.124 72.1728 21.2633 71.5747 21.2633C71.034 21.2633 70.5393 21.1529 70.0907 20.9323C69.6535 20.7116 69.3027 20.4096 69.0382 20.0264C68.7736 19.643 68.6412 19.2133 68.6412 18.7371C68.6298 18.0982 68.785 17.6046 69.1072 17.2562C69.4292 16.8962 69.9642 16.6405 70.7119 16.4896C71.4596 16.3386 72.5065 16.2631 73.8523 16.2631H74.2147V15.6184C74.2147 14.8519 74.0594 14.2944 73.7489 13.9459C73.4382 13.5858 72.9494 13.4058 72.2821 13.4058C71.4309 13.4058 70.6199 13.6323 69.8492 14.0853C69.8146 14.1085 69.7225 14.1724 69.573 14.2769C69.435 14.3699 69.3142 14.4163 69.2106 14.4163C69.0956 14.4163 68.9978 14.3757 68.9174 14.2944C68.8483 14.2014 68.8138 14.0911 68.8138 13.9633C68.8138 13.7078 69.0151 13.4581 69.4178 13.2142C69.8204 12.9819 70.269 12.8018 70.7637 12.6741C71.2583 12.5463 71.7472 12.4824 72.2304 12.4824ZM71.661 20.34C72.4086 20.34 73.0184 20.0845 73.49 19.5734C73.9732 19.0622 74.2147 18.4118 74.2147 17.6221V17.0471H73.8869C72.7825 17.0471 71.9371 17.0936 71.3504 17.1864C70.7637 17.2794 70.3496 17.4421 70.108 17.6743C69.8663 17.895 69.7456 18.2202 69.7456 18.6499C69.7456 19.1378 69.9297 19.5443 70.2977 19.8696C70.6658 20.1832 71.1203 20.34 71.661 20.34Z" fill="#76EEC6"/>
<path d="M78.8797 21.2285C78.7186 21.2285 78.5864 21.1821 78.4828 21.0891C78.3907 20.9962 78.3447 20.8627 78.3447 20.6885V9.31157C78.3447 9.13735 78.3907 9.00378 78.4828 8.91086C78.5864 8.81795 78.7186 8.77148 78.8797 8.77148C79.0291 8.77148 79.15 8.81795 79.2419 8.91086C79.3455 9.00378 79.3972 9.13735 79.3972 9.31157V20.6885C79.3972 20.8627 79.3455 20.9962 79.2419 21.0891C79.15 21.1821 79.0291 21.2285 78.8797 21.2285Z" fill="#76EEC6"/>
<path d="M83.5505 21.2457C83.217 21.2457 82.9467 21.147 82.7396 20.9496C82.544 20.7405 82.4463 20.4617 82.4463 20.1133V9.92117C82.4463 9.58434 82.5382 9.323 82.7223 9.13716C82.9179 8.95132 83.1824 8.8584 83.5161 8.8584H87.7609C89.0608 8.8584 90.0731 9.18943 90.7978 9.85149C91.5225 10.5019 91.8849 11.4195 91.8849 12.6042C91.8849 13.789 91.5225 14.7123 90.7978 15.3744C90.0731 16.0365 89.0608 16.3675 87.7609 16.3675H84.6722V20.1133C84.6722 20.4617 84.5686 20.7405 84.3616 20.9496C84.166 21.147 83.8957 21.2457 83.5505 21.2457ZM87.4848 14.6427C89.0148 14.6427 89.7797 13.969 89.7797 12.6217C89.7797 11.2743 89.0148 10.6006 87.4848 10.6006H84.6722V14.6427H87.4848Z" fill="#76EEC6"/>
<path d="M97.4313 12.4126C98.6047 12.4126 99.4732 12.7088 100.037 13.3011C100.612 13.8819 100.9 14.7704 100.9 15.9668V20.2179C100.9 20.5315 100.808 20.7811 100.624 20.967C100.439 21.1413 100.186 21.2283 99.8643 21.2283C99.5652 21.2283 99.3179 21.1355 99.1224 20.9496C98.9383 20.7638 98.8462 20.5198 98.8462 20.2179V19.8346C98.6507 20.2875 98.34 20.6417 97.9144 20.8973C97.5003 21.1528 97.0172 21.2806 96.465 21.2806C95.9013 21.2806 95.3894 21.1645 94.9294 20.9321C94.4692 20.6998 94.1068 20.3805 93.8423 19.9739C93.5776 19.5674 93.4453 19.1144 93.4453 18.615C93.4453 17.9877 93.6006 17.4941 93.9113 17.1341C94.2333 16.774 94.751 16.5127 95.4642 16.3501C96.1774 16.1874 97.161 16.1061 98.4148 16.1061H98.8462V15.7055C98.8462 15.1362 98.7255 14.724 98.4838 14.4684C98.2424 14.2013 97.8512 14.0677 97.3106 14.0677C96.9769 14.0677 96.6376 14.12 96.2925 14.2245C95.9474 14.3174 95.539 14.4568 95.0674 14.6427C94.7683 14.7937 94.5497 14.8692 94.4117 14.8692C94.2046 14.8692 94.032 14.7937 93.894 14.6427C93.7675 14.4917 93.7042 14.2942 93.7042 14.0503C93.7042 13.8528 93.7502 13.6844 93.8423 13.545C93.9457 13.3941 94.1125 13.2547 94.3426 13.1269C94.7452 12.9062 95.2227 12.732 95.7748 12.6042C96.3385 12.4765 96.8907 12.4126 97.4313 12.4126ZM96.8963 19.7126C97.4715 19.7126 97.9375 19.521 98.2941 19.1376C98.6622 18.7427 98.8462 18.2375 98.8462 17.6219V17.256H98.5357C97.7649 17.256 97.1668 17.2909 96.7412 17.3605C96.3154 17.4303 96.0107 17.5522 95.8265 17.7264C95.6425 17.9007 95.5505 18.1387 95.5505 18.4408C95.5505 18.8125 95.677 19.1202 95.9301 19.3642C96.1947 19.5965 96.5168 19.7126 96.8963 19.7126Z" fill="#76EEC6"/>
<path d="M106.491 21.2806C105.237 21.2806 104.225 21.0309 103.454 20.5315C103.086 20.3107 102.902 19.9971 102.902 19.5907C102.902 19.3584 102.966 19.1725 103.092 19.0331C103.219 18.8821 103.374 18.8066 103.558 18.8066C103.754 18.8066 104.024 18.8995 104.369 19.0854C104.737 19.2597 105.071 19.3931 105.37 19.4861C105.68 19.579 106.072 19.6254 106.543 19.6254C107.026 19.6254 107.4 19.5442 107.665 19.3816C107.941 19.2189 108.079 18.9925 108.079 18.7021C108.079 18.5047 108.021 18.3479 107.906 18.2317C107.803 18.1155 107.607 18.0111 107.32 17.9181C107.044 17.8136 106.618 17.6975 106.043 17.5696C105.019 17.3605 104.283 17.0644 103.834 16.6812C103.397 16.2978 103.178 15.7693 103.178 15.0956C103.178 14.5846 103.328 14.1258 103.627 13.7193C103.926 13.3011 104.335 12.9817 104.852 12.761C105.381 12.5287 105.979 12.4126 106.647 12.4126C107.13 12.4126 107.596 12.4765 108.044 12.6042C108.493 12.7204 108.896 12.8946 109.252 13.1269C109.62 13.3592 109.804 13.667 109.804 14.0503C109.804 14.2826 109.741 14.4801 109.615 14.6427C109.488 14.7937 109.333 14.8692 109.149 14.8692C109.022 14.8692 108.896 14.846 108.769 14.7994C108.654 14.7414 108.505 14.6601 108.321 14.5556C107.987 14.3813 107.699 14.2536 107.458 14.1723C107.216 14.0793 106.917 14.0329 106.56 14.0329C106.135 14.0329 105.795 14.12 105.542 14.2942C105.301 14.4684 105.18 14.7065 105.18 15.0085C105.18 15.2989 105.307 15.5196 105.56 15.6706C105.813 15.8216 106.302 15.9725 107.026 16.1236C107.797 16.2861 108.401 16.472 108.838 16.6812C109.275 16.8901 109.586 17.1515 109.77 17.4651C109.965 17.7787 110.063 18.1794 110.063 18.6672C110.063 19.4571 109.735 20.0901 109.08 20.5662C108.435 21.0425 107.573 21.2806 106.491 21.2806Z" fill="#76EEC6"/>
<path d="M115.211 21.2806C113.957 21.2806 112.945 21.0309 112.174 20.5315C111.806 20.3107 111.622 19.9971 111.622 19.5907C111.622 19.3584 111.685 19.1725 111.812 19.0331C111.938 18.8821 112.094 18.8066 112.278 18.8066C112.473 18.8066 112.744 18.8995 113.089 19.0854C113.457 19.2597 113.79 19.3931 114.09 19.4861C114.4 19.579 114.791 19.6254 115.263 19.6254C115.746 19.6254 116.12 19.5442 116.385 19.3816C116.661 19.2189 116.799 18.9925 116.799 18.7021C116.799 18.5047 116.741 18.3479 116.626 18.2317C116.523 18.1155 116.327 18.0111 116.039 17.9181C115.763 17.8136 115.338 17.6975 114.763 17.5696C113.739 17.3605 113.003 17.0644 112.554 16.6812C112.117 16.2978 111.898 15.7693 111.898 15.0956C111.898 14.5846 112.048 14.1258 112.347 13.7193C112.646 13.3011 113.054 12.9817 113.572 12.761C114.101 12.5287 114.699 12.4126 115.366 12.4126C115.85 12.4126 116.316 12.4765 116.764 12.6042C117.213 12.7204 117.615 12.8946 117.972 13.1269C118.34 13.3592 118.524 13.667 118.524 14.0503C118.524 14.2826 118.461 14.4801 118.334 14.6427C118.208 14.7937 118.053 14.8692 117.869 14.8692C117.742 14.8692 117.615 14.846 117.489 14.7994C117.374 14.7414 117.224 14.6601 117.04 14.5556C116.707 14.3813 116.419 14.2536 116.177 14.1723C115.936 14.0793 115.637 14.0329 115.28 14.0329C114.855 14.0329 114.515 14.12 114.262 14.2942C114.021 14.4684 113.9 14.7065 113.9 15.0085C113.9 15.2989 114.026 15.5196 114.279 15.6706C114.533 15.8216 115.021 15.9725 115.746 16.1236C116.517 16.2861 117.121 16.472 117.558 16.6812C117.995 16.8901 118.306 17.1515 118.49 17.4651C118.685 17.7787 118.783 18.1794 118.783 18.6672C118.783 19.4571 118.455 20.0901 117.8 20.5662C117.155 21.0425 116.293 21.2806 115.211 21.2806Z" fill="#76EEC6"/>
<path d="M9.79311 12.4141C8.054 12.4141 6.35394 12.9298 4.90793 13.896C3.4619 14.8622 2.33487 16.2354 1.66934 17.8421C1.00381 19.449 0.829677 21.2169 1.16896 22.9226C1.50825 24.6283 2.34571 26.1951 3.57545 27.4249C4.80519 28.6546 6.37197 29.492 8.07766 29.8314C9.78336 30.1707 11.5514 29.9964 13.1581 29.331C14.7648 28.6653 16.1382 27.5383 17.1042 26.0923C18.0704 24.6464 18.5862 22.9463 18.5862 21.2072H13.4873C13.4873 21.9378 13.2707 22.652 12.8647 23.2596C12.4588 23.8671 11.8818 24.3406 11.2068 24.6202C10.5318 24.8998 9.78902 24.973 9.0724 24.8304C8.3558 24.6879 7.69756 24.336 7.18091 23.8194C6.66426 23.3027 6.31241 22.6445 6.16988 21.9279C6.02734 21.2113 6.10049 20.4685 6.3801 19.7935C6.65971 19.1184 7.1332 18.5415 7.74071 18.1355C8.34822 17.7297 9.06247 17.5129 9.79311 17.5129V12.4141Z" fill="#76EEC6"/>
<path d="M18.5119 17.5862C20.251 17.5862 21.9511 17.0704 23.397 16.1042C24.843 15.138 25.97 13.7648 26.6356 12.1581C27.3011 10.5514 27.4753 8.78335 27.136 7.07765C26.7967 5.37195 25.9592 3.80519 24.7295 2.57544C23.4998 1.34571 21.933 0.508245 20.2273 0.168961C18.5216 -0.170323 16.7537 0.00381023 15.1469 0.66934C13.5401 1.33487 12.1669 2.46191 11.2006 3.90792C10.2345 5.35394 9.71875 7.05399 9.71875 8.79311H14.8176C14.8176 8.06247 15.0343 7.34823 15.4402 6.74071C15.8461 6.1332 16.4231 5.6597 17.0982 5.3801C17.7732 5.10049 18.516 5.02734 19.2326 5.16988C19.9492 5.31241 20.6074 5.66425 21.1241 6.1809C21.6407 6.69756 21.9926 7.3558 22.1351 8.0724C22.2777 8.78901 22.2045 9.53179 21.9249 10.2068C21.6453 10.8818 21.1718 11.4588 20.5643 11.8647C19.9567 12.2707 19.2425 12.4873 18.5119 12.4873V17.5862Z" fill="#76EEC6"/>
</g>
<defs>
<clipPath id="clip0_58_590">
<rect width="120" height="30" fill="#76EEC6"/>
</clipPath>
</defs>
</svg>
