<svg width="208" height="31" viewBox="0 0 208 31" fill="none" xmlns="http://www.w3.org/2000/svg">
<path d="M25.602 4.06641L21.9067 8.5348C22.7621 9.39317 23.45 10.4159 23.9248 11.5482L29.4677 9.83758C28.6337 7.62164 27.3005 5.65226 25.602 4.06641Z" fill="#76EEC6"/>
<path d="M24.1955 2.90081C21.9096 1.22668 19.1366 0.176544 16.1323 0V5.79857C17.7395 5.95381 19.231 6.51083 20.5003 7.3692L24.1955 2.90081Z" fill="#76EEC6"/>
<path d="M14.3061 5.79857V0C11.3078 0.176544 8.54706 1.22363 6.26416 2.88559L9.95028 7.36007C11.2165 6.50475 12.7019 5.95076 14.3061 5.79857Z" fill="#76EEC6"/>
<path d="M4.85503 4.04834C3.07741 5.70116 1.69854 7.77403 0.870605 10.1087L6.44697 11.7128C6.92486 10.5074 7.64017 9.42381 8.54115 8.52283L4.85503 4.04834Z" fill="#76EEC6"/>
<path d="M30.0066 11.585L24.4668 13.2926C24.5916 13.9044 24.6586 14.5375 24.6586 15.1889C24.6586 15.4842 24.6433 15.7764 24.6159 16.0655C26.5275 16.6591 28.3629 17.4201 30.1101 18.3332C30.3232 17.3166 30.445 16.2695 30.445 15.1889C30.445 13.947 30.2928 12.7416 30.0127 11.585H30.0066Z" fill="#76EEC6"/>
<path d="M15.2192 7.2749C10.8482 7.2749 7.30518 10.818 7.30518 15.189C7.30518 15.2651 7.31126 15.3442 7.31431 15.4203C9.70983 14.8724 12.2028 14.5802 14.7627 14.5802C17.6482 14.5802 20.4456 14.9485 23.115 15.6425C23.1242 15.4933 23.1333 15.3412 23.1333 15.189C23.1333 10.818 19.5902 7.2749 15.2192 7.2749Z" fill="#76EEC6"/>
<path d="M0.368308 11.8652C0.130886 12.9367 0 14.0477 0 15.1891C0 16.1206 0.0882721 17.0307 0.252641 17.9134C2.02113 17.052 3.87789 16.3428 5.8077 15.804C5.79552 15.6001 5.78335 15.3961 5.78335 15.1891C5.78335 14.6017 5.84118 14.0264 5.94163 13.4694L0.368308 11.8652Z" fill="#76EEC6"/>
<path d="M3.46387 24.8516C6.25509 28.2455 10.483 30.4097 15.2193 30.4097C19.9555 30.4097 23.9308 28.3703 26.7221 25.1499C23.0907 23.4483 19.0363 22.4956 14.7627 22.4956C10.7448 22.4956 6.92474 23.3388 3.46387 24.8516Z" fill="#76EEC6"/>
<path d="M14.7625 16.1035C9.67315 16.1035 4.86688 17.3058 0.605469 19.4366C1.04074 20.9311 1.69517 22.3313 2.53528 23.5975C6.26402 21.9143 10.4037 20.9737 14.7595 20.9737C19.3861 20.9737 23.7693 22.033 27.6776 23.9202C28.5451 22.6844 29.233 21.3116 29.7048 19.8444C25.2547 17.458 20.1623 16.1035 14.7595 16.1035H14.7625Z" fill="#76EEC6"/>
<path d="M43.6011 18.0787C43.7037 20.2855 45.0124 21.6968 48.0403 21.6968C51.0682 21.6968 51.8894 20.6704 51.8894 19.1051C51.8894 17.6682 51.0169 16.8983 49.3233 16.6417L45.4486 16.1285C42.472 15.7436 40.8811 14.1527 40.8811 11.407C40.8811 8.43043 43.0878 6.22363 47.7837 6.22363C52.7361 6.22363 54.789 8.68703 55.0199 11.715H51.8124C51.5814 9.89307 50.3241 8.68703 47.758 8.68703C45.3203 8.68703 44.1912 9.7391 44.1912 11.2531C44.1912 12.3821 44.8071 13.2033 46.3211 13.4085L50.1958 13.9474C53.429 14.358 55.1739 15.8463 55.1739 18.7459C55.1739 22.1074 53.121 24.1602 48.0146 24.1602C42.4207 24.1602 40.4961 21.235 40.4448 18.0787H43.6011Z" fill="#76EEC6"/>
<path d="M65.6331 24.1859C59.3206 24.1859 56.8059 20.0802 56.8059 15.2048C56.8059 10.4063 59.3206 6.22363 65.6331 6.22363C71.9455 6.22363 74.4603 10.4319 74.4603 15.2048C74.4603 20.0546 71.9455 24.1859 65.6331 24.1859ZM60.2187 15.2048C60.2187 19.3104 61.6557 21.4916 65.6331 21.4916C69.6104 21.4916 71.0218 19.3104 71.0218 15.2048C71.0218 11.0991 69.6104 8.91797 65.6331 8.91797C61.6557 8.91797 60.2187 11.0991 60.2187 15.2048Z" fill="#76EEC6"/>
<path d="M76.8944 23.7497V6.68552H80.1789V21.1323H88.5185V23.7497H76.8944Z" fill="#76EEC6"/>
<path d="M106.411 23.7497H103.101L101.716 19.9776H93.7865L92.4009 23.7497H89.1163L95.2748 6.68552H100.253L106.411 23.7497ZM94.6846 17.4116H100.817L97.7382 8.99495L94.6846 17.4116Z" fill="#76EEC6"/>
<path d="M121.844 20.85C121.844 22.2357 122.05 23.1082 122.178 23.7497H118.945C118.765 23.2365 118.611 22.3127 118.611 20.927V19.798C118.611 17.6168 117.354 16.77 115.404 16.77H111.478V23.7497H108.193V6.68552H116.789C120.459 6.68552 122.332 8.53307 122.332 11.33C122.332 13.7165 120.869 15.2561 118.893 15.7436C120.613 16.2312 121.844 17.0267 121.844 19.4644V20.85ZM111.478 14.3836H116.276C118.252 14.3836 118.919 13.4085 118.919 11.715C118.919 10.1497 118.098 9.25156 116.199 9.25156H111.478V14.3836Z" fill="#76EEC6"/>
<path d="M127.599 18.0787C127.701 20.2855 129.01 21.6968 132.038 21.6968C135.066 21.6968 135.887 20.6704 135.887 19.1051C135.887 17.6682 135.015 16.8983 133.321 16.6417L129.446 16.1285C126.47 15.7436 124.879 14.1527 124.879 11.407C124.879 8.43043 127.085 6.22363 131.781 6.22363C136.734 6.22363 138.787 8.68703 139.018 11.715H135.81C135.579 9.89307 134.322 8.68703 131.756 8.68703C129.318 8.68703 128.189 9.7391 128.189 11.2531C128.189 12.3821 128.805 13.2033 130.319 13.4085L134.193 13.9474C137.427 14.358 139.172 15.8463 139.172 18.7459C139.172 22.1074 137.119 24.1602 132.012 24.1602C126.418 24.1602 124.494 21.235 124.442 18.0787H127.599Z" fill="#76EEC6"/>
<path d="M141.722 23.7497V6.68552H145.006V13.7165H153.5V6.68552H156.759V23.7497H153.5V16.3082H145.006V23.7497H141.722Z" fill="#76EEC6"/>
<path d="M175.85 23.7497H172.54L171.154 19.9776H163.225L161.839 23.7497H158.555L164.713 6.68552H169.691L175.85 23.7497ZM164.123 17.4116H170.256L167.177 8.99495L164.123 17.4116Z" fill="#76EEC6"/>
<path d="M191.283 20.85C191.283 22.2357 191.488 23.1082 191.616 23.7497H188.383C188.203 23.2365 188.05 22.3127 188.05 20.927V19.798C188.05 17.6168 186.792 16.77 184.842 16.77H180.916V23.7497H177.631V6.68552H186.228C189.897 6.68552 191.77 8.53307 191.77 11.33C191.77 13.7165 190.308 15.2561 188.332 15.7436C190.051 16.2312 191.283 17.0267 191.283 19.4644V20.85ZM180.916 14.3836H185.714C187.69 14.3836 188.357 13.4085 188.357 11.715C188.357 10.1497 187.536 9.25156 185.637 9.25156H180.916V14.3836Z" fill="#76EEC6"/>
<path d="M197.831 16.2825V21.1323H207.761V23.7497H194.546V6.68552H207.684V9.30288H197.831V13.7934H206.915V16.2825H197.831Z" fill="#76EEC6"/>
</svg>
