<svg width="432" height="60" viewBox="0 0 432 60" fill="none" xmlns="http://www.w3.org/2000/svg">
<path fill-rule="evenodd" clip-rule="evenodd" d="M20.6161 5.48108C22.6579 3.44503 25.3681 2.3208 28.2494 2.3208C31.1307 2.3208 33.8461 3.43985 35.8827 5.48108C37.9192 7.52232 39.0438 10.2267 39.0438 13.1124C39.0438 15.9981 37.9192 18.7076 35.8827 20.7437L28.2494 28.375L20.6161 20.7437C18.5796 18.7025 17.455 15.9981 17.455 13.1124C17.455 10.2267 18.5744 7.51714 20.6161 5.48108ZM38.079 22.9349C42.2869 18.7281 49.1325 18.7281 53.3404 22.9349V22.94C57.5483 27.1468 57.5483 33.9907 53.3404 38.1975C49.1325 42.4043 42.2869 42.4043 38.079 38.1975L30.4458 30.5662L38.079 22.9349ZM28.2494 32.7628L20.6161 40.3941C18.5796 42.4301 17.455 45.1397 17.455 48.0254C17.455 50.9111 18.5796 53.6154 20.6161 55.6567C22.6527 57.6927 25.363 58.817 28.2494 58.817C31.1358 58.817 33.8409 57.6927 35.8827 55.6567C37.9192 53.6206 39.0438 50.9111 39.0438 48.0254C39.0438 45.1397 37.9192 42.4353 35.8827 40.3941L28.2494 32.7628ZM3.15591 38.1975C-1.05197 33.9907 -1.05197 27.1468 3.15591 22.94V22.9349C7.3638 18.7281 14.2094 18.7281 18.4173 22.9349L26.0505 30.5662L18.4173 38.1975C14.2094 42.4043 7.3638 42.4043 3.15591 38.1975Z" fill="#76EEC6"/>
<path d="M85.6766 18.328V16.9849C85.6766 15.3002 85.3349 13.8864 84.6516 12.7318C83.9683 11.5184 82.9197 10.9175 81.4942 10.9175C79.9155 10.9175 78.7609 11.4477 78.0305 12.4962C77.3 13.4976 76.923 14.6286 76.923 15.8893C76.923 17.7271 77.5003 19.1998 78.6549 20.3073C79.8683 21.3558 81.3646 22.2747 83.1436 23.0641C84.9343 23.8534 86.8547 24.6664 88.8929 25.5028C90.9428 26.2922 92.8632 27.3407 94.6422 28.6602C96.4329 29.9797 97.9056 31.7116 99.0602 33.8676C100.274 35.9647 100.874 38.7333 100.874 42.1499C100.874 48.1466 99.1662 52.5057 95.7496 55.239C92.333 57.9251 87.3966 59.2564 80.9287 59.2564C77.8773 59.2564 75.1794 58.9972 72.8113 58.4671C70.5022 57.9958 68.5229 57.1476 66.8971 55.9459C65.3184 54.6852 64.1167 53.0594 63.2684 51.0566C62.4319 49.0538 62.0078 46.5915 62.0078 43.6461V41.6786H76.1926V43.0217C76.1926 45.4369 76.6403 47.1452 77.5356 48.1466C78.431 49.0891 79.5856 49.5604 80.9994 49.5604C82.5191 49.5604 83.6855 49.0302 84.4631 47.9817C85.2995 46.9331 85.7237 45.6372 85.7237 44.1174C85.7237 42.2795 85.1464 40.8304 83.9918 39.7818C82.8844 38.6744 81.4706 37.7554 79.7387 37.025C78.054 36.2356 76.2161 35.4463 74.2251 34.6569C72.2222 33.8676 70.3608 32.8426 68.6289 31.582C66.9442 30.3214 65.5304 28.6602 64.3759 26.6103C63.2684 24.5603 62.7147 21.886 62.7147 18.5636C62.7383 12.8379 64.2698 8.47878 67.3094 5.47454C70.3608 2.48207 74.9909 0.98584 81.1879 0.98584C87.3848 0.98584 92.227 2.37604 95.0663 5.16822C97.9527 7.90149 99.4018 12.2842 99.4018 18.328H85.6883H85.6766Z" fill="#76EEC6"/>
<path d="M114.622 36.2229L100.52 2.09229H116.365L121.879 21.72H122.032L127.558 2.09229H143.639L129.29 36.2229V58.3718H114.622V36.2229Z" fill="#76EEC6"/>
<path d="M145.89 2.09229H162.289L171.75 36.7766H171.903V2.09229H185.616V58.3718H169.535L159.768 23.605H159.603V58.3718H145.89V2.09229Z" fill="#76EEC6"/>
<path d="M199.955 14.5452H189.069V2.09229H225.65V14.5452H214.623V58.3718H199.955V14.5452Z" fill="#76EEC6"/>
<path d="M228.96 2.09229H262.301V14.0739H243.628V23.6875H261.123V35.1979H243.628V46.3902H263.02V58.3718H228.96V2.09229Z" fill="#76EEC6"/>
<path d="M312.467 2.09229H328.866L338.327 36.7766H338.48V2.09229H352.205V58.3718H336.124L326.345 23.605H326.18V58.3718H312.467V2.09229Z" fill="#76EEC6"/>
<path d="M359.12 2.09229H392.473V14.0739H373.788V23.6875H391.283V35.1979H373.788V46.3902H393.18V58.3718H359.12V2.09229Z" fill="#76EEC6"/>
<path d="M405.952 14.5452H395.078V2.09229H431.647V14.5452H420.62V58.3718H405.952V14.5452Z" fill="#76EEC6"/>
<path d="M297.152 30.6267V30.4736C300.521 29.9434 302.96 28.5296 304.48 26.2205C306 23.9113 306.765 20.86 306.765 17.0782C306.765 14.9222 306.483 12.9311 305.894 11.0815C305.364 9.24357 304.48 7.66486 303.219 6.35713C302.006 4.9905 300.404 3.94196 298.413 3.19973C296.469 2.46929 294.101 2.09229 291.32 2.09229H268.382V58.3836H283.05V35.8341H286.914C287.809 35.8341 288.54 35.9637 289.117 36.2229C289.753 36.4349 290.248 36.8591 290.613 37.4835C291.037 38.0608 291.32 38.8737 291.485 39.9222C291.638 40.9707 291.721 42.2903 291.721 43.869V58.3718H306.388V43.2328C306.388 39.451 305.729 36.4821 304.421 34.3261C303.113 32.1701 300.686 30.933 297.164 30.6149L297.152 30.6267ZM290.613 24.0881C289.612 25.3016 288.068 25.9024 285.96 25.9024H283.038V12.6602H285.877C288.08 12.6602 289.659 13.155 290.613 14.1564C291.615 15.1578 292.109 16.8425 292.109 19.1988C292.109 21.2016 291.615 22.8275 290.613 24.0881Z" fill="#76EEC6"/>
</svg>
